{"title":"Pada server linux tanpa kepala, deteksi jika disk optik yang dimasukkan adalah disk audio","draft":false,"url":"/pada-server-linux-tanpa-kepala-deteksi-jika-disk-optik-yang-dimasukkan-adalah-disk-audio-yr1spmz9","votes":"4","answers_count":"2","categories":["Komputer"],"tags":["linux","audio","compact-disc"],"snippet":"Pada server Linux tanpa kepala (fedora terbaru jika ini diminati), bagaimana saya dapat mendeteksi bahwa disk optik yang dimasukkan adalah disk audio, bukan disk data atau DVD video? Tidak ada lingkungan desktop...","body":"<p> Pada server Linux tanpa kepala (fedora terbaru jika ini diminati), bagaimana saya dapat mendeteksi bahwa disk optik yang dimasukkan adalah disk audio, bukan disk data atau DVD video? Tidak ada lingkungan desktop yang terpasang, dan saya memilih untuk tidak memasangnya. </p>\n\n<p> Apa yang saya lihat adalah pemasangan gagal, tetapi saya rasa itu juga bisa menjadi kasus untuk disk data yang rusak: </p> <pre><code>[root@server ~]# mount /dev/sr0 /mnt/cdrom\nmount: /dev/sr0 is write-protected, mounting read-only\nmount: /dev/sr0: can't read superblock\n[root@server ~]# echo $?\n32\n</code></pre> <p> Ada saran? </p>","source":"https://superuser.com/questions/1070917/on-a-headless-linux-server-detect-if-inserted-optical-disk-is-audio-disk","author":"<a href=\"https://superuser.com/users/66782/isaac\" target=\"_blank\" rel=\"nofollow noopener\"><span itemprop=\"name\">Isaac</span></a>","replies":[],"answers":[{"answer":"<p> Cara untuk mencapai ini adalah dengan menggunakan file <strong> cdparanoia.dll </strong> alat baris perintah. Di Ubuntu Linux Anda dapat menginstalnya melalui </p>\n\n<p> <code>sudo apt install cdparanoia</code> </p>\n\n<p> lalu lari </p>\n\n<p> <code>cdparanoia -Q</code> </p>\n\n<p> Dimana &quot;-Q&quot; adalah singkatan dari &quot;query&quot;.\nJika tidak ada disk audio di drive, Anda akan mendapatkannya </p> <pre><code>cdparanoia III release 10.2 (September 11, 2008)\n004: Unable to read table of contents header\nUnable to open disc.  Is there an audio CD in the drive?\n</code></pre> <p> Kalau tidak, akan terlihat seperti ... </p> <pre><code>Table of contents (audio tracks only): track        length             begin        copy pre ch\n===========================================================\n  1.     8315 [01:50.65]        0 [00:00.00]    no   no  2\n  2.    12830 [02:51.05]     8315 [01:50.65]    no   no  2\n  3.    15642 [03:28.42]    21145 [04:41.70]    no   no  2\n  4.    16238 [03:36.38]    36787 [08:10.37]    no   no  2\n</code></pre>","votes":"4","source":"https://superuser.com/a/1070928","author":"<a href=\"https://superuser.com/users/588254/antani\" target=\"_blank\" rel=\"nofollow noopener\"><span itemprop=\"name\">Antani</span></a>","replies":[{"reply":"Jika Anda ingin menggunakannya dalam skrip, alihkan stdout dan stderr ke <code>&#47;dev&#47;null</code>, dan gunakan nilai kembalian - 0 (berhasil) jika ada disk, atau bukan nol (kegagalan) jika tidak.","author":"<a href=\"https://superuser.com/users/443006/toby-speight\" target=\"_blank\" rel=\"nofollow noopener\">Toby Speight</a>"}]},{"answer":"<h3 class=\"h5\"> Bagaimana cara mendeteksi jika disk optik yang dimasukkan adalah disk audio? </h3> <pre><code>#!/bin/bash\ncheckforaudio=`gvfs-info -f cdda://sr0/ | grep \"filesystem::type: cdda\"`\nif [ \"$checkforaudio\" == \"  filesystem::type: cdda\" ]; then\n    vlc cdda:///dev/sr0\n    else\n        checkfordvd=`find /media/*/ -name \"VIDEO_TS\" | grep \"VIDEO_TS\"`\n        if [ ${checkfordvd:(-8)} == \"VIDEO_TS\" ]; then\n            vlc dvd:///dev/sr0\n            else\n            pcmanfm\n        fi\nfi\nexit 0\n</code></pre> <p> Sumber <a href=\"http://ubuntuforums.org/showthread.php?t=1911452\" rel=\"nofollow noopener\" target=\"_blank\"> http://ubuntuforums.org/showthread.php?t=1911452 </a></p>","votes":"3","source":"https://superuser.com/a/1070924","author":"<a href=\"https://superuser.com/users/337631/davidpostill\" target=\"_blank\" rel=\"nofollow noopener\"><span itemprop=\"name\">DavidPostill</span></a>","replies":[{"reply":"Saya sebenarnya tahu sumbernya, tetapi mendapat kesan yang salah bahwa gvfs-info membutuhkan gnome, karena ini adalah bagian dari proyek gnome. Ternyata gvfs-client (paket yang berisi gvfs-info di fedora) menginstal tanpa sisa gnome, jadi milik Anda tentu merupakan jawaban yang bagus. Namun, saya tetap membutuhkan cdparanoia dalam proyek saya (ditambah lagi jauh lebih kecil), saya akan menerima jawaban lain.","author":"<a href=\"https://superuser.com/users/66782/isaac\" target=\"_blank\" rel=\"nofollow noopener\">Isaac</a>"}]}]}
